<svg width="35" height="34" viewBox="0 0 35 34" fill="none" xmlns="http://www.w3.org/2000/svg">
<path d="M10.333 33.6667C9.41634 33.6667 8.63134 33.34 7.97801 32.6867C7.32467 32.0333 6.99856 31.2489 6.99967 30.3333C6.99967 29.4167 7.32634 28.6317 7.97967 27.9783C8.63301 27.325 9.41745 26.9989 10.333 27C11.2497 27 12.0347 27.3267 12.688 27.98C13.3413 28.6333 13.6675 29.4178 13.6663 30.3333C13.6663 31.25 13.3397 32.035 12.6863 32.6883C12.033 33.3417 11.2486 33.6678 10.333 33.6667ZM26.9997 33.6667C26.083 33.6667 25.298 33.34 24.6447 32.6867C23.9913 32.0333 23.6652 31.2489 23.6663 30.3333C23.6663 29.4167 23.993 28.6317 24.6463 27.9783C25.2997 27.325 26.0841 26.9989 26.9997 27C27.9163 27 28.7013 27.3267 29.3547 27.98C30.008 28.6333 30.3341 29.4178 30.333 30.3333C30.333 31.25 30.0063 32.035 29.353 32.6883C28.6997 33.3417 27.9152 33.6678 26.9997 33.6667ZM8.91634 7.00001L12.9163 15.3333H24.583L29.1663 7.00001H8.91634ZM4.70801 25.3333L9.66634 16.3333L3.66634 3.66668H0.333008V0.333344H5.74967L7.33301 3.66668H34.833L26.5413 18.6667H12.1663L10.333 22H30.333V25.3333H4.70801Z" fill="white"/>
</svg>
